{"title":"Thor 2011 PPVRIP IFLIX","uid":6585159,"size":1417634809,"categoryP":"video","categoryS":"movies","magnet":"?xt=urn:btih:cb01b212efd4596ac89abba1a4434d3fbd7f00d2&amp;dn=Thor+2011+PPVRIP+IFLIX&amp;tr=udp%3A%2F%2Ftracker.openbittorrent.com%3A80&amp;tr=udp%3A%2F%2Fopen.demonii.com%3A1337&amp;tr=udp%3A%2F%2Ftracker.coppersurfer.tk%3A6969&amp;tr=udp%3A%2F%2Fexodus.desync.com%3A6969","seeders":4,"leechers":0,"uploader":"IwannaFan2","files":7,"time":1312575793,"description":"Thor 2011 PPVRIP IFLIX &lt;a href=&quot;\nhttp://www.imdb.com/title/tt0800369/&quot; rel=&quot;nofollow&quot; target=&quot;_NEW&quot;&gt;\nhttp://www.imdb.com/title/tt0800369/&lt;/a&gt;\n\nLanguage                         : English\n\nFormat                           : AVI\nFormat/Info                      : Audio Video Interleave\nFile size                        : 1.31 GiB\nDuration                         : 1h 54mn\nOverall bit rate                 : 1 639 Kbps\n\nVideo\nID                               : 0\nFormat                           : MPEG-4 Visual\nFormat settings, BVOP            : Yes\nFormat settings, QPel            : No\nFormat settings, GMC             : No warppoints\nFormat settings, Matrix          : Default (H.263)\nCodec ID                         : DX50\nCodec ID/Hint                    : DivX 5\nDuration                         : 1h 54mn\nBit rate                         : 1 500 Kbps\nWidth                            : 640 pixels\nHeight                           : 480 pixels\nDisplay aspect ratio             : 4:3\nFrame rate                       : 29.970 fps\nResolution                       : 24 bits\nColorimetry                      : 4:2:0\nScan type                        : Progressive\nBits/(Pixel*Frame)               : 0.163\nStream size                      : 1.20 GiB (91%)\nWriting library                  : DivX 2151n\n\nAudio\nID                               : 1\nFormat                           : MPEG Audio\nFormat version                   : Version 1\nFormat profile                   : Layer 3\nCodec ID                         : 55\nCodec ID/Hint                    : MP3\nDuration                         : 1h 54mn\nBit rate mode                    : Constant\nBit rate                         : 128 Kbps\nChannel(s)                       : 2 channels\nSampling rate                    : 48.0 KHz\nResolution                       : 16 bits\nStream size                      : 105 MiB (8%)\nAlignment                        : Aligned on interleaves\nInterleave, duration             : 33 ms (1.00 video frame)\n\nRelease notes...\n\nAnother quality release from IFLIX\n\nVideo source: Ours\nAudio source: Ours\n\nThis release also includes the scene after the credits with Nick Fury and The Cube\n\nAlso, had a wee bit of signal loss at times, but this version is still very watchable.\n\nGreetings to all other groups out there. You all do awesome work and we greatly appreciate it.\nIFLIX :-)","torrent":{"xt":"urn:btih:cb01b212efd4596ac89abba1a4434d3fbd7f00d2","amp;dn":"Thor+2011+PPVRIP+IFLIX","amp;tr":["udp%3A%2F%2Ftracker.openbittorrent.com%3A80","udp%3A%2F%2Fopen.demonii.com%3A1337","udp%3A%2F%2Ftracker.coppersurfer.tk%3A6969","udp%3A%2F%2Fexodus.desync.com%3A6969"],"infoHash":"cb01b212efd4596ac89abba1a4434d3fbd7f00d2","infoHashBuffer":{"type":"Buffer","data":[203,1,178,18,239,212,89,106,200,154,187,161,164,67,77,63,189,127,0,210]},"announce":[],"urlList":[]}}